<svg width="689.601" height="78.001" viewBox="0 0 689.601 78.001" xmlns="http://www.w3.org/2000/svg"><g id="svgGroup" stroke-linecap="round" fill-rule="evenodd" font-size="9pt" stroke="#0bc9b3" stroke-width="0.25mm" fill="#0bc9b3" style="stroke:#0bc9b3;stroke-width:0.25mm;fill:#0bc9b3"><path d="M 198.801 40.6 L 198.801 76.8 L 190.001 76.8 L 190.001 41.8 Q 190.001 36.8 187.901 34.05 A 6.727 6.727 0 0 0 183.973 31.569 A 10.681 10.681 0 0 0 181.501 31.3 Q 177.68 31.3 174.914 32.507 A 11.513 11.513 0 0 0 174.101 32.9 A 22.293 22.293 0 0 0 171.932 34.237 Q 169.76 35.738 167.201 38.1 A 9.031 9.031 0 0 1 167.244 38.557 Q 167.301 39.325 167.301 40.6 L 167.301 76.8 L 158.501 76.8 L 158.501 41.8 Q 158.501 36.8 156.401 34.05 A 6.727 6.727 0 0 0 152.473 31.569 A 10.681 10.681 0 0 0 150.001 31.3 A 20.711 20.711 0 0 0 146.717 31.546 Q 144.405 31.918 142.601 32.85 A 20.331 20.331 0 0 0 140.341 34.229 Q 139.222 35.007 138.011 36.023 A 49.002 49.002 0 0 0 135.801 38 L 135.801 76.8 L 127.001 76.8 L 127.001 36.2 L 124.801 24.6 L 133.601 24.6 L 135.001 31.8 Q 137.954 28.847 140.541 26.992 A 23.572 23.572 0 0 1 143.151 25.35 Q 146.316 23.659 150.872 23.435 A 29.019 29.019 0 0 1 152.301 23.4 A 19.45 19.45 0 0 1 156.096 23.751 Q 158.848 24.299 160.951 25.7 A 12.799 12.799 0 0 1 165.426 30.943 A 16.254 16.254 0 0 1 166.001 32.3 Q 170.801 27.5 174.501 25.45 A 15.32 15.32 0 0 1 178.531 23.945 Q 180.318 23.537 182.388 23.434 A 28.658 28.658 0 0 1 183.801 23.4 A 19.134 19.134 0 0 1 188.269 23.89 A 12.212 12.212 0 0 1 195.001 27.95 Q 198.801 32.5 198.801 40.6 Z M 497.401 76.8 L 482.001 52.4 L 473.801 61.6 L 473.801 76.8 L 465.001 76.8 L 465.001 1.4 L 473.801 1.4 L 473.801 50.1 L 496.601 24.6 L 507.001 24.6 L 487.901 45.9 L 508.201 76.8 L 497.401 76.8 Z M 622.801 40.6 L 622.801 76.8 L 614.001 76.8 L 614.001 41.8 Q 614.001 36.8 611.901 34.05 A 6.727 6.727 0 0 0 607.973 31.569 A 10.681 10.681 0 0 0 605.501 31.3 Q 600.601 31.3 597.251 32.9 A 23.448 23.448 0 0 0 594.633 34.382 Q 592.363 35.85 589.801 38.1 L 589.801 76.8 L 581.001 76.8 L 581.001 36.2 L 578.801 24.6 L 587.601 24.6 L 589.001 31.9 A 51.624 51.624 0 0 1 592.365 28.933 Q 594.041 27.587 595.625 26.594 A 24.148 24.148 0 0 1 597.751 25.4 A 18.029 18.029 0 0 1 601.976 23.965 Q 604.613 23.4 607.801 23.4 A 19.134 19.134 0 0 1 612.269 23.89 A 12.212 12.212 0 0 1 619.001 27.95 Q 622.801 32.5 622.801 40.6 Z M 393.201 76.8 L 384.401 76.8 L 383.001 69.3 A 30.74 30.74 0 0 1 378.541 73.375 A 24.95 24.95 0 0 1 374.551 75.8 Q 370.001 78 364.301 78 Q 357.201 78 352.801 73.95 A 13.418 13.418 0 0 1 348.508 65.229 A 18.659 18.659 0 0 1 348.401 63.2 A 16.926 16.926 0 0 1 349.218 57.79 Q 350.787 53.117 355.365 50.421 A 17.482 17.482 0 0 1 355.401 50.4 A 27.698 27.698 0 0 1 362.842 47.457 Q 366.231 46.626 370.203 46.392 A 54.412 54.412 0 0 1 373.401 46.3 A 64.398 64.398 0 0 1 373.463 46.3 Q 375.451 46.302 377.635 46.427 A 98.376 98.376 0 0 1 382.201 46.8 L 382.201 43.2 A 16.056 16.056 0 0 0 381.803 39.525 A 10.999 10.999 0 0 0 379.251 34.55 A 9.74 9.74 0 0 0 372.181 31.313 A 13.136 13.136 0 0 0 371.601 31.3 A 36.21 36.21 0 0 0 365.947 31.724 A 28.598 28.598 0 0 0 361.451 32.8 A 34.462 34.462 0 0 0 356.326 34.987 A 45.715 45.715 0 0 0 352.101 37.5 L 352.101 29 A 33.577 33.577 0 0 1 358.205 25.788 A 28.761 28.761 0 0 1 361.701 24.65 Q 366.448 23.439 372.508 23.402 A 62.841 62.841 0 0 1 372.901 23.4 Q 380.901 23.4 385.951 28.5 A 17.147 17.147 0 0 1 390.684 38.003 A 24.278 24.278 0 0 1 391.001 42 L 391.001 65.2 L 393.201 76.8 Z M 689.601 76.8 L 680.801 76.8 L 679.501 69.9 A 25.158 25.158 0 0 1 674.388 74.289 A 22.318 22.318 0 0 1 671.401 75.9 A 23.207 23.207 0 0 1 664.529 77.724 A 28.842 28.842 0 0 1 661.301 77.9 Q 651.601 77.9 646.401 70.4 Q 641.532 63.378 641.222 52.674 A 50.881 50.881 0 0 1 641.201 51.2 A 38.463 38.463 0 0 1 641.981 43.291 A 30.795 30.795 0 0 1 644.051 36.9 Q 646.901 30.6 652.251 27 A 21.02 21.02 0 0 1 661.214 23.654 A 27.395 27.395 0 0 1 665.001 23.4 Q 668.601 23.4 671.801 24.25 A 40.854 40.854 0 0 1 675.527 25.444 A 53.044 53.044 0 0 1 678.601 26.7 L 678.601 1.4 L 687.401 1.4 L 687.401 65.2 L 689.601 76.8 Z M 563.101 50.7 L 563.101 53.6 L 526.101 53.6 A 25.481 25.481 0 0 0 527.267 59.135 A 17.821 17.821 0 0 0 531.251 65.85 A 14.378 14.378 0 0 0 539.131 70.04 A 20.885 20.885 0 0 0 543.101 70.4 Q 547.601 70.4 551.851 68.55 A 32.383 32.383 0 0 0 556.409 66.091 A 44.145 44.145 0 0 0 560.501 63.1 L 560.901 63.1 L 560.901 71.9 Q 556.501 75.1 552.201 76.55 A 28.114 28.114 0 0 1 544.367 77.972 A 32.293 32.293 0 0 1 543.001 78 A 30.851 30.851 0 0 1 535.962 77.231 A 24.123 24.123 0 0 1 529.101 74.5 Q 523.201 71 520.051 64.75 A 29.237 29.237 0 0 1 517.24 55.517 A 37.426 37.426 0 0 1 516.901 50.4 A 35.739 35.739 0 0 1 517.778 42.335 A 29.531 29.531 0 0 1 519.751 36.55 A 23.592 23.592 0 0 1 524.546 29.62 A 21.961 21.961 0 0 1 527.901 26.9 A 21.155 21.155 0 0 1 537.491 23.545 A 26.758 26.758 0 0 1 540.301 23.4 Q 547.501 23.4 552.651 26.95 A 21.752 21.752 0 0 1 559.932 35.561 A 26.428 26.428 0 0 1 560.451 36.7 A 32.723 32.723 0 0 1 562.787 45.527 A 41.486 41.486 0 0 1 563.101 50.7 Z M 296.901 74.8 L 296.901 76.8 L 288.101 76.8 L 288.101 1.4 L 296.901 1.4 L 296.901 30.2 Q 303.401 23.4 313.001 23.4 A 21.392 21.392 0 0 1 318.913 24.185 A 17.364 17.364 0 0 1 324.601 27 A 21.288 21.288 0 0 1 330.804 34.478 A 26.509 26.509 0 0 1 331.851 36.8 Q 334.301 43 334.301 50.8 A 36.55 36.55 0 0 1 333.496 58.622 A 29.529 29.529 0 0 1 331.451 64.75 A 23.277 23.277 0 0 1 326.35 71.954 A 22.042 22.042 0 0 1 323.251 74.4 A 21.37 21.37 0 0 1 314.235 77.668 A 27.605 27.605 0 0 1 310.601 77.9 Q 306.901 77.9 303.701 77.1 A 43.117 43.117 0 0 1 299.974 75.979 A 55.449 55.449 0 0 1 296.901 74.8 Z M 446.501 28.5 L 446.501 37 L 446.101 37 A 25.856 25.856 0 0 0 442.088 34.228 A 20.859 20.859 0 0 0 438.651 32.7 A 24.136 24.136 0 0 0 433.987 31.649 A 32.178 32.178 0 0 0 429.901 31.4 A 14.57 14.57 0 0 0 424.941 32.206 A 12.299 12.299 0 0 0 418.951 36.9 A 20.327 20.327 0 0 0 415.891 43.843 Q 415.212 46.645 415.116 49.917 A 37.124 37.124 0 0 0 415.101 51 Q 415.101 59.3 418.951 64.65 A 12.295 12.295 0 0 0 427.894 69.895 A 16.72 16.72 0 0 0 429.801 70 Q 435.001 70 439.101 68.35 A 24.288 24.288 0 0 0 443.618 65.92 A 32.891 32.891 0 0 0 447.201 63.1 L 447.601 63.1 L 447.601 71.6 A 23.9 23.9 0 0 1 443.295 74.871 A 19.805 19.805 0 0 1 439.651 76.55 A 26.149 26.149 0 0 1 434.782 77.682 A 35.65 35.65 0 0 1 429.901 78 A 25.769 25.769 0 0 1 422.851 77.07 A 21.627 21.627 0 0 1 417.101 74.5 Q 411.601 71 408.701 64.85 A 30.268 30.268 0 0 1 406.084 55.614 A 38.167 38.167 0 0 1 405.801 50.9 Q 405.801 43 408.701 36.75 Q 411.601 30.5 417.101 26.95 A 22.188 22.188 0 0 1 426.636 23.595 A 28.311 28.311 0 0 1 430.001 23.4 A 41.676 41.676 0 0 1 434.302 23.611 Q 436.907 23.882 439.101 24.5 Q 443.001 25.6 446.501 28.5 Z M 23.628 77.139 A 37.881 37.881 0 0 0 31.901 78 Q 42.001 78 49.151 73.5 A 28.257 28.257 0 0 0 53.287 70.336 A 29.609 29.609 0 0 0 60.051 60.9 A 39.079 39.079 0 0 0 62.984 51.495 A 52.589 52.589 0 0 0 63.801 42 A 53.407 53.407 0 0 0 63.133 33.368 A 39.525 39.525 0 0 0 60.051 23.1 A 34.326 34.326 0 0 0 59.813 22.598 A 28.669 28.669 0 0 0 49.151 10.5 A 28.29 28.29 0 0 0 40.173 6.862 A 37.881 37.881 0 0 0 31.901 6 Q 21.801 6 14.651 10.5 A 28.257 28.257 0 0 0 10.514 13.664 A 29.609 29.609 0 0 0 3.751 23.1 A 39.079 39.079 0 0 0 0.818 32.506 A 52.589 52.589 0 0 0 0.001 42 A 53.407 53.407 0 0 0 0.668 50.632 A 39.525 39.525 0 0 0 3.751 60.9 A 34.326 34.326 0 0 0 3.988 61.403 A 28.669 28.669 0 0 0 14.651 73.5 A 28.29 28.29 0 0 0 23.628 77.139 Z M 107.001 23.4 L 110.101 23.4 L 110.101 33.1 L 108.601 33.1 A 22.329 22.329 0 0 0 103.744 33.609 A 18.297 18.297 0 0 0 100.151 34.8 Q 96.401 36.5 93.901 39.7 L 93.901 76.8 L 85.101 76.8 L 85.101 36.2 L 82.901 24.6 L 91.701 24.6 L 93.501 33.9 Q 97.601 27.9 100.451 25.65 Q 103.301 23.4 107.001 23.4 Z M 31.901 70 A 26.34 26.34 0 0 0 38.648 69.187 A 17.805 17.805 0 0 0 48.701 62.45 Q 53.398 56.117 54.155 46.019 A 53.781 53.781 0 0 0 54.301 42 A 48.128 48.128 0 0 0 53.643 33.785 Q 52.864 29.297 51.164 25.688 A 24.322 24.322 0 0 0 48.701 21.55 A 18.106 18.106 0 0 0 36.997 14.443 A 27.901 27.901 0 0 0 31.901 14 A 26.34 26.34 0 0 0 25.154 14.813 A 17.805 17.805 0 0 0 15.101 21.55 Q 10.403 27.884 9.646 37.982 A 53.781 53.781 0 0 0 9.501 42 A 48.128 48.128 0 0 0 10.159 50.215 Q 10.937 54.704 12.637 58.313 A 24.322 24.322 0 0 0 15.101 62.45 A 18.106 18.106 0 0 0 26.804 69.557 A 27.901 27.901 0 0 0 31.901 70 Z M 219.501 24.6 L 228.301 24.6 L 228.301 76.8 L 219.501 76.8 L 219.501 24.6 Z M 296.901 39 L 296.901 68.1 A 44.475 44.475 0 0 0 306.91 70.003 A 40.194 40.194 0 0 0 309.701 70.1 Q 316.901 70.1 320.851 64.7 A 19.619 19.619 0 0 0 324.045 57.644 Q 324.801 54.519 324.801 50.8 A 38.948 38.948 0 0 0 324.407 45.091 Q 323.957 42.06 322.993 39.551 A 19.852 19.852 0 0 0 321.751 36.9 A 10.664 10.664 0 0 0 318.598 33.33 Q 316.515 31.872 313.689 31.576 A 14.282 14.282 0 0 0 312.201 31.5 A 19.109 19.109 0 0 0 307.326 32.102 A 16.212 16.212 0 0 0 303.951 33.4 A 22.729 22.729 0 0 0 300.033 36.017 A 30.898 30.898 0 0 0 296.901 39 Z M 678.601 62.1 L 678.601 33.4 Q 672.201 31.2 665.901 31.2 A 15.287 15.287 0 0 0 660.897 31.981 A 12.579 12.579 0 0 0 654.651 36.75 Q 650.919 41.994 650.713 50.05 A 37.197 37.197 0 0 0 650.701 51 A 39.65 39.65 0 0 0 651.069 56.572 Q 651.479 59.456 652.346 61.852 A 19.697 19.697 0 0 0 653.551 64.55 A 10.088 10.088 0 0 0 656.469 67.974 Q 658.434 69.401 661.132 69.713 A 13.644 13.644 0 0 0 662.701 69.8 A 20.197 20.197 0 0 0 667.504 69.25 A 16.647 16.647 0 0 0 671.251 67.85 Q 674.987 65.908 678.574 62.128 A 39.402 39.402 0 0 0 678.601 62.1 Z M 526.101 46.8 L 554.001 46.8 Q 553.301 39.5 549.951 35.1 A 10.894 10.894 0 0 0 542.088 30.787 A 15.903 15.903 0 0 0 540.401 30.7 A 13.778 13.778 0 0 0 535.695 31.472 A 11.86 11.86 0 0 0 530.501 35.2 A 18.675 18.675 0 0 0 527.105 41.65 A 26.254 26.254 0 0 0 526.101 46.8 Z M 382.201 62.8 L 382.201 53 L 373.001 53 A 35.185 35.185 0 0 0 367.869 53.341 Q 357.901 54.819 357.901 62.7 A 9.112 9.112 0 0 0 358.245 65.268 A 6.951 6.951 0 0 0 360.201 68.45 A 7.875 7.875 0 0 0 364.588 70.497 A 10.767 10.767 0 0 0 366.101 70.6 A 19.744 19.744 0 0 0 371.184 69.968 A 16.754 16.754 0 0 0 374.701 68.6 A 26.158 26.158 0 0 0 378.695 65.979 A 36.09 36.09 0 0 0 382.201 62.8 Z M 244.901 46 L 270.901 46 L 270.901 53.6 L 244.901 53.6 L 244.901 46 Z M 221.762 12.492 A 7.085 7.085 0 0 0 223.901 12.8 A 8.037 8.037 0 0 0 224.709 12.761 A 5.867 5.867 0 0 0 228.451 11 A 5.952 5.952 0 0 0 229.889 8.585 A 7.336 7.336 0 0 0 230.201 6.4 A 8.266 8.266 0 0 0 230.158 5.55 A 6.116 6.116 0 0 0 228.451 1.8 A 5.709 5.709 0 0 0 226.039 0.309 A 7.085 7.085 0 0 0 223.901 0 A 8.037 8.037 0 0 0 223.093 0.04 A 5.867 5.867 0 0 0 219.351 1.8 A 5.952 5.952 0 0 0 217.912 4.216 A 7.336 7.336 0 0 0 217.601 6.4 A 8.266 8.266 0 0 0 217.643 7.251 A 6.116 6.116 0 0 0 219.351 11 A 5.709 5.709 0 0 0 221.762 12.492 Z" vector-effect="non-scaling-stroke"/></g></svg>